[2026-03-03T16:43:46.504Z] Pipeline started.
[2026-03-03T16:43:47.567Z] Downloading YouTube: https://youtube.com/shorts/-grO33ayfNc?si=iwdZpY4jfFGIqfJJ
[2026-03-03T16:44:01.182Z] ElevenLabs TTS seg 0 [21m00Tcm4TlvDq8ikWAM]: "Facebook ilk inşa ettiğim şey değildi."
[2026-03-03T16:44:02.732Z] Seg 0 done (38078 bytes) ✅
[2026-03-03T16:44:02.965Z] ElevenLabs TTS seg 1 [21m00Tcm4TlvDq8ikWAM]: "Ayrıca sohbet sistemleri ve oyunlar, çalışma araçl"
[2026-03-03T16:44:04.595Z] Seg 1 done (104533 bytes) ✅
[2026-03-03T16:44:04.966Z] ElevenLabs TTS seg 2 [21m00Tcm4TlvDq8ikWAM]: "J.K. Rowling Harry Potter'ı yazıp yayınlamadan önc"
[2026-03-03T16:44:07.084Z] Seg 2 done (73186 bytes) ✅
[2026-03-03T16:44:07.568Z] ElevenLabs TTS seg 3 [21m00Tcm4TlvDq8ikWAM]: "Hatta Beyonce Halo'yu elde etmek için yüzlerce şar"
[2026-03-03T16:44:08.905Z] Seg 3 done (71515 bytes) ✅
[2026-03-03T16:44:09.363Z] ElevenLabs TTS seg 4 [21m00Tcm4TlvDq8ikWAM]: "En büyük başarılar hata yapma özgürlüğüne sahip ol"
[2026-03-03T16:44:10.668Z] Seg 4 done (66499 bytes) ✅
[2026-03-03T16:44:10.937Z] Running FFmpeg: C:\Users\fullm\Downloads\dubverse-saas\backend\node_modules\ffmpeg-static\ffmpeg.exe -i C:\Users\fullm\Downloads\dubverse-saas\tmp\uploads\526dadd1-3fae-4d98-8efa-295a075d8f5e\audio.mp3 -i C:\Users\fullm\Downloads\dubverse-saas\tmp\uploads\526dadd1-3fae-4d98-8efa-295a075d8f5e\segments\seg_0.mp3 -i C:\Users\fullm\Downloads\dubverse-saas\tmp\uploads\526dadd1-3fae-4d98-8efa-295a075d8f5e\segments\seg_1.mp3 -i C:\Users\fullm\Downloads\dubverse-saas\tmp\uploads\526dadd1-3fae-4d98-8efa-295a075d8f5e\segments\seg_2.mp3 -i C:\Users\fullm\Downloads\dubverse-saas\tmp\uploads\526dadd1-3fae-4d98-8efa-295a075d8f5e\segments\seg_3.mp3 -i C:\Users\fullm\Downloads\dubverse-saas\tmp\uploads\526dadd1-3fae-4d98-8efa-295a075d8f5e\segments\seg_4.mp3 -filter_complex [1:a]aformat=sample_rates=44100:channel_layouts=stereo,adelay=0|0[s0];[2:a]aformat=sample_rates=44100:channel_layouts=stereo,adelay=2500|2500[s1];[3:a]aformat=sample_rates=44100:channel_layouts=stereo,adelay=8340|8340[s2];[4:a]aformat=sample_rates=44100:channel_layouts=stereo,adelay=14880|14880[s3];[5:a]aformat=sample_rates=44100:channel_layouts=stereo,adelay=20340|20340[s4];[0:a]aformat=sample_rates=44100:channel_layouts=stereo,volume=0.12[bg];[bg][s0][s1][s2][s3][s4]amix=inputs=6:duration=first:dropout_transition=2,volume=6[mixed];[mixed]loudnorm=I=-23:TP=-1.5:LRA=11[out] -map [out] -acodec libmp3lame -ar 44100 -b:a 192k -y C:\Users\fullm\Downloads\dubverse-saas\tmp\uploads\526dadd1-3fae-4d98-8efa-295a075d8f5e\dubbed_audio.mp3
[2026-03-03T16:44:11.139Z] FFmpeg Err: Input #0, mp3, from 'C:\Users\fullm\Downloads\dubverse-saas\tmp\uploads\526dadd1-3fae-4d98-8efa-295a075d8f5e\audio.mp3':
  Metadata:
    major_brand     : mp42
    minor_version   : 0
    compatible_brands: isommp42
    encoder         : Lavf60.16.100
  Duration: 00:00:25.73, start: 0.025057, bitrate: 128 kb/s
  Stream #0:0: Audio: mp3, 44100 Hz, stereo, fltp, 128 kb/s
    Metadata:
      encoder         : Lavc60.31

[2026-03-03T16:44:11.142Z] FFmpeg Err: Input #1, mp3, from 'C:\Users\fullm\Downloads\dubverse-saas\tmp\uploads\526dadd1-3fae-4d98-8efa-295a075d8f5e\segments\seg_0.mp3':
  Metadata:
    encoder         : Lavf60.16.100
  Duration: 00:00:02.35, start: 0.025057, bitrate: 64 kb/s
  Stream #1:0: Audio: mp3, 44100 Hz, mono, fltp, 64 kb/s
Input #2, mp3, from 'C:\Users\fullm\Downloads\dubverse-saas\tmp\uploads\526dadd1-3fae-4d98-8efa-295a075d8f5e\segments\seg_1.mp3':
  Metadata:
    encoder         : Lavf60.16.100
  Duration: 00:00:06.50, start: 0.025057, bitrate: 64 kb/s
  Stream #2:0: Audio: mp3, 44100 Hz, mono, fltp, 64 kb/s
Input #3, mp3, from 'C:\Users\fullm\Downloads\dubverse-saas\tmp\uploads\526dadd1-3fae-4d98-8efa-295a075d8f5e\segments\seg_2.mp3':
  Metadata:
    encoder         : Lavf60.16.100
  Duration: 00:00:04.55, start: 0.025057, bitrate: 64 kb/s
  Stream #3:0: Audio: mp3, 44100 Hz, mono, fltp, 64 kb/s
Input #4, mp3, from 'C:\Users\fullm\Downloads\dubverse-saas\tmp\uploads\526dadd1-3fae-4d98-8efa-295a075d8f5e\segments\seg_3.mp3':
  Metadata:
    encoder         : Lavf60.16.100
  Duration: 00:00:04.44, start: 0.025057, bitrate: 64 kb/s
  Stream #4:0: Audio: mp3, 44100 Hz, mono, fltp, 64 kb/s

[2026-03-03T16:44:11.150Z] FFmpeg Err: Input #5, mp3, from 'C:\Users\fullm\Downloads\dubverse-saas\tmp\uploads\526dadd1-3fae-4d98-8efa-295a075d8f5e\segments\seg_4.mp3':
  Metadata:
    encoder         : Lavf60.16.100
  Duration: 00:00:04.13, start: 0.025057, bitrate: 64 kb/s
  Stream #5:0: Audio: mp3, 44100 Hz, mono, fltp, 64 kb/s
Stream mapping:
  Stream #0:0 (mp3float) -> aformat:default
  Stream #1:0 (mp3float) -> aformat:default
  Stream #2:0 (mp3float) -> aformat:default
  Stream #3:0 (mp3float) -> aformat:default
  Stream #4:0 (mp3float) -> aformat:default
  Stream #5:0 (mp3float) -> aformat:default
  loudnorm:default -> Stream #0:0 (libmp3lame)

[2026-03-03T16:44:11.240Z] FFmpeg Err: Output #0, mp3, to 'C:\Users\fullm\Downloads\dubverse-saas\tmp\uploads\526dadd1-3fae-4d98-8efa-295a075d8f5e\dubbed_audio.mp3':
  Metadata:
    major_brand     : mp42
    minor_version   : 0
    compatible_brands: isommp42
    TSSE            : Lavf60.16.100
  Stream #0:0: Audio: mp3, 44100 Hz, stereo, fltp, 192 kb/s
    Metadata:
      encoder         : Lavc60.31.102 libmp3lame

[2026-03-03T16:44:11.243Z] FFmpeg Err: size=       0kB time=-00:00:00.02 bitrate=  -0.0kbits/s speed=N/A    
[2026-03-03T16:44:11.717Z] FFmpeg Err: size=     142kB time=00:00:05.98 bitrate= 193.8kbits/s speed=10.5x    
[2026-03-03T16:44:12.220Z] FFmpeg Err: size=     256kB time=00:00:11.78 bitrate= 178.0kbits/s speed=  11x    
[2026-03-03T16:44:12.721Z] FFmpeg Err: size=     256kB time=00:00:18.57 bitrate= 112.9kbits/s speed=11.8x    
[2026-03-03T16:44:13.221Z] FFmpeg Err: size=     512kB time=00:00:25.59 bitrate= 163.9kbits/s speed=12.3x    
[2026-03-03T16:44:13.226Z] FFmpeg Err: [out#0/mp3 @ 00000151f56b58c0] video:0kB audio:603kB subtitle:0kB other streams:0kB global headers:0kB muxing overhead: 0.123718%
size=     604kB time=00:00:25.69 bitrate= 192.5kbits/s speed=12.4x    

[2026-03-03T16:44:14.003Z] Running FFmpeg: C:\Users\fullm\Downloads\dubverse-saas\backend\node_modules\ffmpeg-static\ffmpeg.exe -i C:\Users\fullm\Downloads\dubverse-saas\tmp\uploads\526dadd1-3fae-4d98-8efa-295a075d8f5e\video.mp4 -i C:\Users\fullm\Downloads\dubverse-saas\tmp\uploads\526dadd1-3fae-4d98-8efa-295a075d8f5e\dubbed_audio.mp3 -map 0:v:0 -map 1:a:0 -c:v copy -c:a aac -b:a 192k -shortest -y C:\Users\fullm\Downloads\dubverse-saas\tmp\uploads\526dadd1-3fae-4d98-8efa-295a075d8f5e\final_dubbed.mp4
[2026-03-03T16:44:14.094Z] FFmpeg Err: Input #0, mov,mp4,m4a,3gp,3g2,mj2, from 'C:\Users\fullm\Downloads\dubverse-saas\tmp\uploads\526dadd1-3fae-4d98-8efa-295a075d8f5e\video.mp4':
  Metadata:
    major_brand     : mp42
    minor_version   : 0
    compatible_brands: isommp42
    creation_time   : 2023-10-04T09:42:15.000000Z
  Duration: 00:00:25.68, start: 0.000000, bitrate: 365 kb/s
  Stream #0:0[0x1](und): Video: h264 (Main) (avc1 / 0x31637661), yuv420p(tv, bt709, progressive), 360x640 [SAR 1:1 DAR 9:16], 233 kb/s
[2026-03-03T16:44:14.098Z] FFmpeg Err: , 25 fps, 25 tbr, 12800 tbn (default)
    Metadata:
      creation_time   : 2023-10-04T09:42:15.000000Z
      handler_name    : ISO Media file produced by Google Inc. Created on: 10/04/2023.
      vendor_id       : [0][0][0][0]
  Stream #0:1[0x2](eng): Audio: aac (LC) (mp4a / 0x6134706D), 44100 Hz, stereo, fltp, 128 kb/s (default)
    Metadata:
      creation_time   : 2023-10-04T09:42:15.000000Z
      handler_name    : ISO Media file produced by Google Inc. Created on: 10/04/2023.
      vendor_id       : [0][0][0][0]
Input #1, mp3, from 'C:\Users\fullm\Downloads\dubverse-saas\tmp\uploads\526dadd1-3fae-4d98-8efa-295a075d8f5e\dubbed_audio.mp3':
  Metadata:
    major_brand     : mp42
    minor_version   : 0
    compatible_brands: isommp42
    encoder         : Lavf60.16.100
  Duration: 00:00:25.73, start: 0.025057, bitrate: 192 kb/s
  Stream #1:0: Audio: mp3, 44100 Hz, stereo, fltp, 192 kb/s
    Metadata:
      encoder         : Lavc60.31

[2026-03-03T16:44:14.101Z] FFmpeg Err: Stream mapping:
  Stream #0:0 -> #0:0 (copy)
  Stream #1:0 -> #0:1 (mp3 (mp3float) -> aac (native))

[2026-03-03T16:44:14.104Z] FFmpeg Err: Output #0, mp4, to 'C:\Users\fullm\Downloads\dubverse-saas\tmp\uploads\526dadd1-3fae-4d98-8efa-295a075d8f5e\final_dubbed.mp4':
  Metadata:
    major_brand     : mp42
    minor_version   : 0
    compatible_brands: isommp42
    encoder         : Lavf60.16.100

[2026-03-03T16:44:14.107Z] FFmpeg Err:   Stream #0:0(und): Video: h264 (Main) (avc1 / 0x31637661), yuv420p(tv, bt709, progressive), 360x640 [SAR 1:1 DAR 9:16], q=2-31, 233 kb/s, 25 fps, 25 tbr, 12800 tbn (default)
    Metadata:
      creation_time   : 2023-10-04T09:42:15.000000Z
      handler_name    : ISO Media file produced by Google Inc. Created on: 10/04/2023.
      vendor_id       : [0][0][0][0]
  Stream #0:1: Audio: aac (LC) (mp4a / 0x6134706D), 44100 Hz, stereo, fltp, 192 kb/s
    Metadata:
      encoder         : Lavc60.31.102 aac
size=       0kB time=N/A bitrate=N/A speed=N/A    
[2026-03-03T16:44:14.602Z] FFmpeg Err: size=     256kB time=00:00:08.08 bitrate= 259.6kbits/s speed=16.1x    
[2026-03-03T16:44:15.108Z] FFmpeg Err: size=     768kB time=00:00:16.28 bitrate= 386.5kbits/s speed=16.2x    
[2026-03-03T16:44:15.599Z] FFmpeg Err: [out#0/mp4 @ 0000021f43c3ee40] video:733kB audio:611kB subtitle:0kB other streams:0kB global headers:0kB muxing overhead: 1.588637%
size=    1365kB time=00:00:25.65 bitrate= 435.8kbits/s speed=17.1x    

[2026-03-03T16:44:15.602Z] FFmpeg Err: [aac @ 0000021f43c3cfc0] Qavg: 672.067

[2026-03-03T16:44:15.967Z] ✅ Pipeline finished successfully!
